G04 ================== begin FILE IDENTIFICATION RECORD ==================*
G04 Layout Name:  PCAD SMOKEDETECTORultimasedinta.brd*
G04 Film Name:    COOPER_BOTTOM*
G04 File Format:  Gerber RS274X*
G04 File Origin:  Cadence Allegro 17.2-S025*
G04 Origin Date:  Mon Jan 19 00:39:00 2026*
G04 *
G04 Layer:  VIA CLASS/BOTTOM*
G04 Layer:  PIN/BOTTOM*
G04 Layer:  ETCH/BOTTOM*
G04 *
G04 Offset:    (0.00 0.00)*
G04 Mirror:    No*
G04 Mode:      Positive*
G04 Rotation:  0*
G04 FullContactRelief:  No*
G04 UndefLineWidth:     0.00*
G04 ================== end FILE IDENTIFICATION RECORD ====================*
%FSLAX25Y25*MOMM*%
%IR0*IPPOS*OFA0.00000B0.00000*MIA0B0*SFA1.00000B1.00000*%
%ADD12C,.61*%
%ADD10C,.64*%
%ADD14C,1.4*%
%ADD13C,1.5*%
%ADD11C,1.7*%
%ADD18C,1.9*%
%ADD17R,1.4X1.4*%
%ADD15R,1.5X1.5*%
%ADD16R,1.9X1.9*%
%ADD19C,.4*%
%ADD20C,1.*%
G75*
%LPD*%
G75*
G54D10*
X270000Y270000D03*
X6730000Y5730000D03*
G54D20*
G01X500000Y1234000D02*
X1250000D01*
G01X1980000Y976000D02*
X1784000Y780000D01*
X1500000D01*
X1250000Y1030000D01*
Y1234000D01*
G01X1980000Y976000D02*
Y700000D01*
X2080000Y600000D01*
X2604000D01*
X3004000Y1000000D01*
G01X1980000Y976000D02*
X2000000Y996000D01*
G01X4004000Y1000000D02*
Y644000D01*
X3945000Y585000D01*
X3075000D01*
X3004000Y656000D01*
Y1000000D01*
G01X3488000Y2988000D02*
Y1484000D01*
X3004000Y1000000D01*
G01X4800000Y1126000D02*
X4130000D01*
X4004000Y1000000D01*
G01X4800000Y1126000D02*
Y600000D01*
X5100000Y300000D01*
X5492000D01*
X5834000Y642000D01*
G01X4874000Y4620000D02*
Y4142000D01*
X5250000Y3766000D01*
G01X5754000Y2258000D02*
X5640000Y2372000D01*
Y2560000D01*
X5740000Y2660000D01*
X6380000D01*
X6480000Y2760000D01*
Y2880000D01*
X6364000Y2996000D01*
X6000000D01*
G01D02*
X5996000Y3000000D01*
X5740000D01*
X5640000Y3100000D01*
Y3540000D01*
X5414000Y3766000D01*
X5250000D01*
G01X6000000Y3250000D02*
Y3386000D01*
X5940000Y3446000D01*
Y3660000D01*
X5700000Y3900000D01*
Y4260000D01*
X6000000Y4560000D01*
Y4750000D01*
G01X5000000Y5500000D02*
X5250000D01*
X6000000Y4750000D01*
G01X5834000Y642000D02*
Y460000D01*
X5934000Y360000D01*
X6440000D01*
X6540000Y460000D01*
Y1500000D01*
X6290000Y1750000D01*
X6008000D01*
G01X5754000Y2258000D02*
Y2004000D01*
X6008000Y1750000D01*
G54D11*
X500000Y1234000D03*
Y2250000D03*
Y2984000D03*
Y4000000D03*
X1250000Y1234000D03*
Y2250000D03*
X1500000Y2984000D03*
Y4000000D03*
X1750000Y4484000D03*
Y5500000D03*
X2000000Y2984000D03*
X2500000Y3984000D03*
X2000000Y4000000D03*
X2500000Y5000000D03*
Y5500000D03*
X4000000Y2250000D03*
X3516000Y5500000D03*
X4750000Y2750000D03*
Y3766000D03*
X5016000Y2250000D03*
X5250000Y2750000D03*
Y3766000D03*
G54D12*
X900000Y2640000D03*
X840000Y3600000D03*
X1500000Y2580000D03*
X2280000Y1680000D03*
X3360000Y1200000D03*
X3300000Y1740000D03*
X5250000Y1830000D03*
X6660000Y1080000D03*
G54D13*
X750000Y5246000D03*
Y5500000D03*
X2000000Y996000D03*
Y1250000D03*
X3004000Y1000000D03*
X2750000D03*
X2726000Y2988000D03*
X2980000D03*
X3234000D03*
X2726000Y3750000D03*
X2980000D03*
X3234000D03*
X4004000Y1000000D03*
X3750000D03*
X3488000Y2988000D03*
X3742000D03*
X3996000D03*
X3488000Y3750000D03*
X3742000D03*
X3996000D03*
X4800000Y1126000D03*
Y1380000D03*
X4250000Y2988000D03*
X4874000Y4620000D03*
X4620000D03*
X6008000Y1750000D03*
X5754000Y2258000D03*
X6000000Y2996000D03*
Y3250000D03*
X6254000Y4750000D03*
X6000000D03*
G54D14*
X4086000Y5500000D03*
G54D15*
X4250000Y3750000D03*
X5500000Y1750000D03*
G54D16*
X5580000Y960000D03*
G54D17*
X5000000Y5500000D03*
G54D18*
X5834000Y642000D03*
X6088000Y960000D03*
G54D19*
G01X1250000Y2250000D02*
X1080000Y2420000D01*
Y4080000D01*
X1484000Y4484000D01*
X1750000D01*
G01X500000Y2984000D02*
Y2250000D01*
G01Y2984000D02*
X844000Y2640000D01*
X900000D01*
G01X500000Y4000000D02*
X840000Y3660000D01*
Y3600000D01*
G01X750000Y5246000D02*
X988000D01*
X1750000Y4484000D01*
G01X750000Y5500000D02*
X1750000D01*
G01X1500000Y2580000D02*
Y2984000D01*
G01Y4000000D02*
X2000000D01*
G01X2500000Y5000000D02*
X2266000D01*
X1750000Y4484000D01*
G01Y5500000D02*
X2500000D01*
G01X2000000Y1250000D02*
Y1400000D01*
X2280000Y1680000D01*
G01X2000000Y2984000D02*
X2216000Y2768000D01*
X2760000D01*
X2980000Y2988000D01*
G01X2726000Y3750000D02*
X2636000Y3840000D01*
X2280000D01*
X2120000Y4000000D01*
X2000000D01*
G01X2980000Y3750000D02*
Y3856000D01*
X3005000Y3881000D01*
Y3955000D01*
X2976000Y3984000D01*
X2500000D01*
G01Y5500000D02*
X3742000Y4258000D01*
Y3750000D01*
G01X3750000Y1000000D02*
X3560000D01*
X3360000Y1200000D01*
G01X2980000Y2988000D02*
Y1230000D01*
X2750000Y1000000D01*
G01X3234000Y2988000D02*
Y1806000D01*
X3300000Y1740000D01*
G01X4000000Y2250000D02*
X4083000Y2333000D01*
Y2577000D01*
X4080000Y2580000D01*
Y2650000D01*
X3742000Y2988000D01*
G01X5016000Y2250000D02*
X4800000Y2466000D01*
Y2480000D01*
X4760000Y2520000D01*
X4464000D01*
X3996000Y2988000D01*
G01X3742000Y3750000D02*
X3996000D01*
G01X3516000Y5500000D02*
X4086000D01*
G01X4250000Y2988000D02*
X4512000D01*
X4750000Y2750000D01*
G01X5250000D02*
X4980000Y3020000D01*
Y3720000D01*
X4934000Y3766000D01*
X4750000D01*
G01X4620000Y4620000D02*
Y4120000D01*
X4250000Y3750000D01*
G01X5500000Y1750000D02*
X5395000D01*
X5385000Y1740000D01*
X5100000D01*
X5016000Y1824000D01*
Y2250000D01*
G01X5250000Y2750000D02*
Y1830000D01*
G01X6660000Y1080000D02*
Y4680000D01*
X6590000Y4750000D01*
X6254000D01*
M02*
