G04 ================== begin FILE IDENTIFICATION RECORD ==================*
G04 Layout Name:  PCAD SMOKEDETECTORultimasedinta.brd*
G04 Film Name:    FABRICATION*
G04 File Format:  Gerber RS274X*
G04 File Origin:  Cadence Allegro 17.2-S025*
G04 Origin Date:  Mon Jan 19 00:39:00 2026*
G04 *
G04 Layer:  MANUFACTURING/XSECTION_CHART*
G04 Layer:  MANUFACTURING/NCLEGEND-1-2*
G04 Layer:  BOARD GEOMETRY/OUTLINE*
G04 Layer:  BOARD GEOMETRY/DIMENSION*
G04 *
G04 Offset:    (0.00 0.00)*
G04 Mirror:    No*
G04 Mode:      Positive*
G04 Rotation:  0*
G04 FullContactRelief:  No*
G04 UndefLineWidth:     0.00*
G04 ================== end FILE IDENTIFICATION RECORD ====================*
%FSLAX25Y25*MOMM*%
%IR0*IPPOS*OFA0.00000B0.00000*MIA0B0*SFA1.00000B1.00000*%
%AMMACRO15*
1,1,0.0,.3,0.0*
20,1,0.0,.3,0.0,-.3,0.0,0.0*
1,1,0.0,-.3,0.0*
1,1,0.0,0.0,.3*
20,1,0.0,0.0,.3,0.0,-.3,0.0*
1,1,0.0,0.0,-.3*
%
%ADD15MACRO15*%
%AMMACRO16*
1,1,0.0,.635,0.0*
20,1,0.0,.635,0.0,.625353,-.110267,0.0*
1,1,0.0,.625353,-.110267*
20,1,0.0,.625353,-.110267,.596705,-.217183,0.0*
1,1,0.0,.596705,-.217183*
20,1,0.0,.596705,-.217183,.549926,-.3175,0.0*
1,1,0.0,.549926,-.3175*
20,1,0.0,.549926,-.3175,.486438,-.40817,0.0*
1,1,0.0,.486438,-.40817*
20,1,0.0,.486438,-.40817,.40817,-.486438,0.0*
1,1,0.0,.40817,-.486438*
20,1,0.0,.40817,-.486438,.3175,-.549926,0.0*
1,1,0.0,.3175,-.549926*
20,1,0.0,.3175,-.549926,.217183,-.596705,0.0*
1,1,0.0,.217183,-.596705*
20,1,0.0,.217183,-.596705,.110267,-.625353,0.0*
1,1,0.0,.110267,-.625353*
20,1,0.0,.110267,-.625353,0.0,-.635,0.0*
1,1,0.0,0.0,-.635*
20,1,0.0,0.0,-.635,-.110267,-.625353,0.0*
1,1,0.0,-.110267,-.625353*
20,1,0.0,-.110267,-.625353,-.217183,-.596705,0.0*
1,1,0.0,-.217183,-.596705*
20,1,0.0,-.217183,-.596705,-.3175,-.549926,0.0*
1,1,0.0,-.3175,-.549926*
20,1,0.0,-.3175,-.549926,-.40817,-.486438,0.0*
1,1,0.0,-.40817,-.486438*
20,1,0.0,-.40817,-.486438,-.486438,-.40817,0.0*
1,1,0.0,-.486438,-.40817*
20,1,0.0,-.486438,-.40817,-.549926,-.3175,0.0*
1,1,0.0,-.549926,-.3175*
20,1,0.0,-.549926,-.3175,-.596705,-.217183,0.0*
1,1,0.0,-.596705,-.217183*
20,1,0.0,-.596705,-.217183,-.625353,-.110267,0.0*
1,1,0.0,-.625353,-.110267*
20,1,0.0,-.625353,-.110267,-.635,0.0,0.0*
1,1,0.0,-.635,0.0*
20,1,0.0,-.635,0.0,-.625353,.110267,0.0*
1,1,0.0,-.625353,.110267*
20,1,0.0,-.625353,.110267,-.596705,.217183,0.0*
1,1,0.0,-.596705,.217183*
20,1,0.0,-.596705,.217183,-.549926,.3175,0.0*
1,1,0.0,-.549926,.3175*
20,1,0.0,-.549926,.3175,-.486438,.40817,0.0*
1,1,0.0,-.486438,.40817*
20,1,0.0,-.486438,.40817,-.40817,.486438,0.0*
1,1,0.0,-.40817,.486438*
20,1,0.0,-.40817,.486438,-.3175,.549926,0.0*
1,1,0.0,-.3175,.549926*
20,1,0.0,-.3175,.549926,-.217183,.596705,0.0*
1,1,0.0,-.217183,.596705*
20,1,0.0,-.217183,.596705,-.110267,.625353,0.0*
1,1,0.0,-.110267,.625353*
20,1,0.0,-.110267,.625353,0.0,.635,0.0*
1,1,0.0,0.0,.635*
20,1,0.0,0.0,.635,.110267,.625353,0.0*
1,1,0.0,.110267,.625353*
20,1,0.0,.110267,.625353,.217183,.596705,0.0*
1,1,0.0,.217183,.596705*
20,1,0.0,.217183,.596705,.3175,.549926,0.0*
1,1,0.0,.3175,.549926*
20,1,0.0,.3175,.549926,.40817,.486438,0.0*
1,1,0.0,.40817,.486438*
20,1,0.0,.40817,.486438,.486438,.40817,0.0*
1,1,0.0,.486438,.40817*
20,1,0.0,.486438,.40817,.549926,.3175,0.0*
1,1,0.0,.549926,.3175*
20,1,0.0,.549926,.3175,.596705,.217183,0.0*
1,1,0.0,.596705,.217183*
20,1,0.0,.596705,.217183,.625353,.110267,0.0*
1,1,0.0,.625353,.110267*
20,1,0.0,.625353,.110267,.635,0.0,0.0*
1,1,0.0,.635,0.0*
1,1,0.0,.3175,0.0*
20,1,0.0,.3175,0.0,-.3175,0.0,0.0*
1,1,0.0,-.3175,0.0*
1,1,0.0,0.0,.3175*
20,1,0.0,0.0,.3175,0.0,-.3175,0.0*
1,1,0.0,0.0,-.3175*
%
%ADD16MACRO16*%
%AMMACRO13*
1,1,0.0,.5,0.0*
20,1,0.0,.5,0.0,.492404,-.086824,0.0*
1,1,0.0,.492404,-.086824*
20,1,0.0,.492404,-.086824,.469846,-.17101,0.0*
1,1,0.0,.469846,-.17101*
20,1,0.0,.469846,-.17101,.433013,-.25,0.0*
1,1,0.0,.433013,-.25*
20,1,0.0,.433013,-.25,.383022,-.321394,0.0*
1,1,0.0,.383022,-.321394*
20,1,0.0,.383022,-.321394,.321394,-.383022,0.0*
1,1,0.0,.321394,-.383022*
20,1,0.0,.321394,-.383022,.25,-.433013,0.0*
1,1,0.0,.25,-.433013*
20,1,0.0,.25,-.433013,.17101,-.469846,0.0*
1,1,0.0,.17101,-.469846*
20,1,0.0,.17101,-.469846,.086824,-.492404,0.0*
1,1,0.0,.086824,-.492404*
20,1,0.0,.086824,-.492404,0.0,-.5,0.0*
1,1,0.0,0.0,-.5*
20,1,0.0,0.0,-.5,-.086824,-.492404,0.0*
1,1,0.0,-.086824,-.492404*
20,1,0.0,-.086824,-.492404,-.17101,-.469846,0.0*
1,1,0.0,-.17101,-.469846*
20,1,0.0,-.17101,-.469846,-.25,-.433013,0.0*
1,1,0.0,-.25,-.433013*
20,1,0.0,-.25,-.433013,-.321394,-.383022,0.0*
1,1,0.0,-.321394,-.383022*
20,1,0.0,-.321394,-.383022,-.383022,-.321394,0.0*
1,1,0.0,-.383022,-.321394*
20,1,0.0,-.383022,-.321394,-.433013,-.25,0.0*
1,1,0.0,-.433013,-.25*
20,1,0.0,-.433013,-.25,-.469846,-.17101,0.0*
1,1,0.0,-.469846,-.17101*
20,1,0.0,-.469846,-.17101,-.492404,-.086824,0.0*
1,1,0.0,-.492404,-.086824*
20,1,0.0,-.492404,-.086824,-.5,0.0,0.0*
1,1,0.0,-.5,0.0*
20,1,0.0,-.5,0.0,-.492404,.086824,0.0*
1,1,0.0,-.492404,.086824*
20,1,0.0,-.492404,.086824,-.469846,.17101,0.0*
1,1,0.0,-.469846,.17101*
20,1,0.0,-.469846,.17101,-.433013,.25,0.0*
1,1,0.0,-.433013,.25*
20,1,0.0,-.433013,.25,-.383022,.321394,0.0*
1,1,0.0,-.383022,.321394*
20,1,0.0,-.383022,.321394,-.321394,.383022,0.0*
1,1,0.0,-.321394,.383022*
20,1,0.0,-.321394,.383022,-.25,.433013,0.0*
1,1,0.0,-.25,.433013*
20,1,0.0,-.25,.433013,-.17101,.469846,0.0*
1,1,0.0,-.17101,.469846*
20,1,0.0,-.17101,.469846,-.086824,.492404,0.0*
1,1,0.0,-.086824,.492404*
20,1,0.0,-.086824,.492404,0.0,.5,0.0*
1,1,0.0,0.0,.5*
20,1,0.0,0.0,.5,.086824,.492404,0.0*
1,1,0.0,.086824,.492404*
20,1,0.0,.086824,.492404,.17101,.469846,0.0*
1,1,0.0,.17101,.469846*
20,1,0.0,.17101,.469846,.25,.433013,0.0*
1,1,0.0,.25,.433013*
20,1,0.0,.25,.433013,.321394,.383022,0.0*
1,1,0.0,.321394,.383022*
20,1,0.0,.321394,.383022,.383022,.321394,0.0*
1,1,0.0,.383022,.321394*
20,1,0.0,.383022,.321394,.433013,.25,0.0*
1,1,0.0,.433013,.25*
20,1,0.0,.433013,.25,.469846,.17101,0.0*
1,1,0.0,.469846,.17101*
20,1,0.0,.469846,.17101,.492404,.086824,0.0*
1,1,0.0,.492404,.086824*
20,1,0.0,.492404,.086824,.5,0.0,0.0*
1,1,0.0,.5,0.0*
1,1,0.0,-.21,-.25*
20,1,0.0,-.21,-.25,0.0,.25,0.0*
1,1,0.0,0.0,.25*
20,1,0.0,0.0,.25,.21,-.25,0.0*
1,1,0.0,.21,-.25*
1,1,0.0,.13,-.08*
20,1,0.0,.13,-.08,-.13,-.08,0.0*
1,1,0.0,-.13,-.08*
%
%ADD13MACRO13*%
%AMMACRO11*
1,1,0.0,.7,0.0*
20,1,0.0,.7,0.0,.689365,-.121554,0.0*
1,1,0.0,.689365,-.121554*
20,1,0.0,.689365,-.121554,.657785,-.239414,0.0*
1,1,0.0,.657785,-.239414*
20,1,0.0,.657785,-.239414,.606218,-.35,0.0*
1,1,0.0,.606218,-.35*
20,1,0.0,.606218,-.35,.536231,-.449951,0.0*
1,1,0.0,.536231,-.449951*
20,1,0.0,.536231,-.449951,.449951,-.536231,0.0*
1,1,0.0,.449951,-.536231*
20,1,0.0,.449951,-.536231,.35,-.606218,0.0*
1,1,0.0,.35,-.606218*
20,1,0.0,.35,-.606218,.239414,-.657785,0.0*
1,1,0.0,.239414,-.657785*
20,1,0.0,.239414,-.657785,.121554,-.689365,0.0*
1,1,0.0,.121554,-.689365*
20,1,0.0,.121554,-.689365,0.0,-.7,0.0*
1,1,0.0,0.0,-.7*
20,1,0.0,0.0,-.7,-.121554,-.689365,0.0*
1,1,0.0,-.121554,-.689365*
20,1,0.0,-.121554,-.689365,-.239414,-.657785,0.0*
1,1,0.0,-.239414,-.657785*
20,1,0.0,-.239414,-.657785,-.35,-.606218,0.0*
1,1,0.0,-.35,-.606218*
20,1,0.0,-.35,-.606218,-.449951,-.536231,0.0*
1,1,0.0,-.449951,-.536231*
20,1,0.0,-.449951,-.536231,-.536231,-.449951,0.0*
1,1,0.0,-.536231,-.449951*
20,1,0.0,-.536231,-.449951,-.606218,-.35,0.0*
1,1,0.0,-.606218,-.35*
20,1,0.0,-.606218,-.35,-.657785,-.239414,0.0*
1,1,0.0,-.657785,-.239414*
20,1,0.0,-.657785,-.239414,-.689365,-.121554,0.0*
1,1,0.0,-.689365,-.121554*
20,1,0.0,-.689365,-.121554,-.7,0.0,0.0*
1,1,0.0,-.7,0.0*
20,1,0.0,-.7,0.0,-.689365,.121554,0.0*
1,1,0.0,-.689365,.121554*
20,1,0.0,-.689365,.121554,-.657785,.239414,0.0*
1,1,0.0,-.657785,.239414*
20,1,0.0,-.657785,.239414,-.606218,.35,0.0*
1,1,0.0,-.606218,.35*
20,1,0.0,-.606218,.35,-.536231,.449951,0.0*
1,1,0.0,-.536231,.449951*
20,1,0.0,-.536231,.449951,-.449951,.536231,0.0*
1,1,0.0,-.449951,.536231*
20,1,0.0,-.449951,.536231,-.35,.606218,0.0*
1,1,0.0,-.35,.606218*
20,1,0.0,-.35,.606218,-.239414,.657785,0.0*
1,1,0.0,-.239414,.657785*
20,1,0.0,-.239414,.657785,-.121554,.689365,0.0*
1,1,0.0,-.121554,.689365*
20,1,0.0,-.121554,.689365,0.0,.7,0.0*
1,1,0.0,0.0,.7*
20,1,0.0,0.0,.7,.121554,.689365,0.0*
1,1,0.0,.121554,.689365*
20,1,0.0,.121554,.689365,.239414,.657785,0.0*
1,1,0.0,.239414,.657785*
20,1,0.0,.239414,.657785,.35,.606218,0.0*
1,1,0.0,.35,.606218*
20,1,0.0,.35,.606218,.449951,.536231,0.0*
1,1,0.0,.449951,.536231*
20,1,0.0,.449951,.536231,.536231,.449951,0.0*
1,1,0.0,.536231,.449951*
20,1,0.0,.536231,.449951,.606218,.35,0.0*
1,1,0.0,.606218,.35*
20,1,0.0,.606218,.35,.657785,.239414,0.0*
1,1,0.0,.657785,.239414*
20,1,0.0,.657785,.239414,.689365,.121554,0.0*
1,1,0.0,.689365,.121554*
20,1,0.0,.689365,.121554,.7,0.0,0.0*
1,1,0.0,.7,0.0*
1,1,0.0,-.29,-.35*
20,1,0.0,-.29,-.35,0.0,.35,0.0*
1,1,0.0,0.0,.35*
20,1,0.0,0.0,.35,.29,-.35,0.0*
1,1,0.0,.29,-.35*
1,1,0.0,.19,-.11*
20,1,0.0,.19,-.11,-.19,-.11,0.0*
1,1,0.0,-.19,-.11*
%
%ADD11MACRO11*%
%AMMACRO12*
1,1,0.0,-.5,.35*
20,1,0.0,-.5,.35,-.492404,.436824,0.0*
1,1,0.0,-.492404,.436824*
20,1,0.0,-.492404,.436824,-.469846,.52101,0.0*
1,1,0.0,-.469846,.52101*
20,1,0.0,-.469846,.52101,-.433013,.6,0.0*
1,1,0.0,-.433013,.6*
20,1,0.0,-.433013,.6,-.383022,.671394,0.0*
1,1,0.0,-.383022,.671394*
20,1,0.0,-.383022,.671394,-.321394,.733022,0.0*
1,1,0.0,-.321394,.733022*
20,1,0.0,-.321394,.733022,-.25,.783013,0.0*
1,1,0.0,-.25,.783013*
20,1,0.0,-.25,.783013,-.17101,.819846,0.0*
1,1,0.0,-.17101,.819846*
20,1,0.0,-.17101,.819846,-.086824,.842404,0.0*
1,1,0.0,-.086824,.842404*
20,1,0.0,-.086824,.842404,0.0,.85,0.0*
1,1,0.0,0.0,.85*
20,1,0.0,0.0,.85,.086824,.842404,0.0*
1,1,0.0,.086824,.842404*
20,1,0.0,.086824,.842404,.17101,.819846,0.0*
1,1,0.0,.17101,.819846*
20,1,0.0,.17101,.819846,.25,.783013,0.0*
1,1,0.0,.25,.783013*
20,1,0.0,.25,.783013,.321394,.733022,0.0*
1,1,0.0,.321394,.733022*
20,1,0.0,.321394,.733022,.383022,.671394,0.0*
1,1,0.0,.383022,.671394*
20,1,0.0,.383022,.671394,.433013,.6,0.0*
1,1,0.0,.433013,.6*
20,1,0.0,.433013,.6,.469846,.52101,0.0*
1,1,0.0,.469846,.52101*
20,1,0.0,.469846,.52101,.492404,.436824,0.0*
1,1,0.0,.492404,.436824*
20,1,0.0,.492404,.436824,.5,.35,0.0*
1,1,0.0,.5,.35*
20,1,0.0,.5,.35,.5,-.35,0.0*
1,1,0.0,.5,-.35*
20,1,0.0,.5,-.35,.492404,-.436824,0.0*
1,1,0.0,.492404,-.436824*
20,1,0.0,.492404,-.436824,.469846,-.52101,0.0*
1,1,0.0,.469846,-.52101*
20,1,0.0,.469846,-.52101,.433013,-.6,0.0*
1,1,0.0,.433013,-.6*
20,1,0.0,.433013,-.6,.383022,-.671394,0.0*
1,1,0.0,.383022,-.671394*
20,1,0.0,.383022,-.671394,.321394,-.733022,0.0*
1,1,0.0,.321394,-.733022*
20,1,0.0,.321394,-.733022,.25,-.783013,0.0*
1,1,0.0,.25,-.783013*
20,1,0.0,.25,-.783013,.17101,-.819846,0.0*
1,1,0.0,.17101,-.819846*
20,1,0.0,.17101,-.819846,.086824,-.842404,0.0*
1,1,0.0,.086824,-.842404*
20,1,0.0,.086824,-.842404,0.0,-.85,0.0*
1,1,0.0,0.0,-.85*
20,1,0.0,0.0,-.85,-.086824,-.842404,0.0*
1,1,0.0,-.086824,-.842404*
20,1,0.0,-.086824,-.842404,-.17101,-.819846,0.0*
1,1,0.0,-.17101,-.819846*
20,1,0.0,-.17101,-.819846,-.25,-.783013,0.0*
1,1,0.0,-.25,-.783013*
20,1,0.0,-.25,-.783013,-.321394,-.733022,0.0*
1,1,0.0,-.321394,-.733022*
20,1,0.0,-.321394,-.733022,-.383022,-.671394,0.0*
1,1,0.0,-.383022,-.671394*
20,1,0.0,-.383022,-.671394,-.433013,-.6,0.0*
1,1,0.0,-.433013,-.6*
20,1,0.0,-.433013,-.6,-.469846,-.52101,0.0*
1,1,0.0,-.469846,-.52101*
20,1,0.0,-.469846,-.52101,-.492404,-.436824,0.0*
1,1,0.0,-.492404,-.436824*
20,1,0.0,-.492404,-.436824,-.5,-.35,0.0*
1,1,0.0,-.5,-.35*
20,1,0.0,-.5,-.35,-.5,.35,0.0*
1,1,0.0,-.5,.35*
%
%ADD12MACRO12*%
%AMMACRO14*
1,1,0.0,.65,0.0*
20,1,0.0,.65,0.0,.325,.562917,0.0*
1,1,0.0,.325,.562917*
20,1,0.0,.325,.562917,-.325,.562917,0.0*
1,1,0.0,-.325,.562917*
20,1,0.0,-.325,.562917,-.65,0.0,0.0*
1,1,0.0,-.65,0.0*
20,1,0.0,-.65,0.0,-.325,-.562917,0.0*
1,1,0.0,-.325,-.562917*
20,1,0.0,-.325,-.562917,.325,-.562917,0.0*
1,1,0.0,.325,-.562917*
20,1,0.0,.325,-.562917,.65,0.0,0.0*
1,1,0.0,.65,0.0*
%
%ADD14MACRO14*%
%AMMACRO10*
1,1,0.0,-.67,-.95*
20,1,0.0,-.67,-.95,.67,.95,0.0*
1,1,0.0,.67,.95*
1,1,0.0,-.67,.95*
20,1,0.0,-.67,.95,.67,-.95,0.0*
1,1,0.0,.67,-.95*
%
%ADD10MACRO10*%
%LPD*%
G75*
G54D10*
X-5840000Y-13090000D03*
X270000Y270000D03*
X6730000Y5730000D03*
G54D11*
X-5840000Y-12450000D03*
X5580000Y960000D03*
X5834000Y642000D03*
X6088000Y960000D03*
G54D12*
X-5840000Y-11810000D03*
X500000Y1234000D03*
Y2250000D03*
Y2984000D03*
Y4000000D03*
X1250000Y1234000D03*
Y2250000D03*
X1500000Y2984000D03*
Y4000000D03*
X1750000Y4484000D03*
Y5500000D03*
X2000000Y2984000D03*
X2500000Y3984000D03*
X2000000Y4000000D03*
X2500000Y5000000D03*
Y5500000D03*
X4000000Y2250000D03*
X3516000Y5500000D03*
X4750000Y2750000D03*
Y3766000D03*
X5016000Y2250000D03*
X5250000Y2750000D03*
Y3766000D03*
G54D13*
X-5840000Y-11170000D03*
X5500000Y1750000D03*
X6008000D03*
X5754000Y2258000D03*
G54D14*
X-5840000Y-10530000D03*
X750000Y5246000D03*
Y5500000D03*
X2000000Y996000D03*
Y1250000D03*
X3004000Y1000000D03*
X2750000D03*
X2726000Y2988000D03*
X2980000D03*
X3234000D03*
X2726000Y3750000D03*
X2980000D03*
X3234000D03*
X4004000Y1000000D03*
X3750000D03*
X3488000Y2988000D03*
X3742000D03*
X3996000D03*
X3488000Y3750000D03*
X3742000D03*
X3996000D03*
X4800000Y1126000D03*
Y1380000D03*
X4250000Y2988000D03*
Y3750000D03*
X4874000Y4620000D03*
X4620000D03*
X6000000Y2996000D03*
Y3250000D03*
X6254000Y4750000D03*
X6000000D03*
G54D15*
X-5840000Y-9890000D03*
X4086000Y5500000D03*
X5000000D03*
G54D16*
X-5840000Y-9250000D03*
X900000Y2640000D03*
X840000Y3600000D03*
X1500000Y2580000D03*
X2280000Y1680000D03*
X3360000Y1200000D03*
X3300000Y1740000D03*
X5250000Y1830000D03*
X6660000Y1080000D03*
M02*
